<svg xmlns="http://www.w3.org/2000/svg" width="30" height="30" viewBox="0 0 30 30"><g transform="translate(0.363)"><rect width="30" height="30" transform="translate(-0.363)" fill="none"/><g transform="translate(1.046 2.221)"><path d="M24.749,21.837A12.808,12.808,0,0,1,14.324,2.01,12.789,12.789,0,0,0,1.98,14.789c0,.179.026.358.026.537a6.463,6.463,0,0,1,2.533-.537h0a10.19,10.19,0,0,1,5.5-9.082,14.887,14.887,0,0,0,1.33,10.361,15.462,15.462,0,0,0,8.7,7.5,10.19,10.19,0,0,1-7.176,1.292,5.026,5.026,0,0,1-2.1,2.1,12.778,12.778,0,0,0,14.684-5.142C25.26,21.824,25,21.837,24.749,21.837Z" transform="translate(-0.726 -2.01)" fill="#93869c"/><path d="M8.675,16.558h-.23a3.833,3.833,0,1,0-3.607,5.117H8.675a2.558,2.558,0,0,0,0-5.117Z" transform="translate(-1 1.337)" fill="#93869c"/></g></g></svg>