<svg xmlns="http://www.w3.org/2000/svg" xmlns:xlink="http://www.w3.org/1999/xlink" width="45.3" height="43.836" viewBox="0 0 45.3 43.836"><defs><style>.a{fill:#945fbc;}.b{fill:url(#a);}.c{clip-path:url(#b);}.d{fill:#c7acdb;}.e{clip-path:url(#c);}.f{fill:url(#d);}.g{fill:url(#e);}</style><linearGradient id="a" x1="0.5" x2="0.5" y2="1" gradientUnits="objectBoundingBox"><stop offset="0" stop-color="#9f52d9"/><stop offset="0.482" stop-color="#8146ad"/><stop offset="1" stop-color="#4a305e"/></linearGradient><clipPath id="b"><rect class="a" width="45.3" height="43.836"/></clipPath><clipPath id="c"><rect class="b" width="45.3" height="43.836"/></clipPath><linearGradient id="d" x1="0.5" x2="0.5" y2="1" gradientUnits="objectBoundingBox"><stop offset="0" stop-color="#945fbc"/><stop offset="1" stop-color="#4a305e"/></linearGradient><linearGradient id="e" x1="0.5" x2="0.5" y2="1" gradientUnits="objectBoundingBox"><stop offset="0" stop-color="#bf9ed7"/><stop offset="1" stop-color="#efe2f9"/></linearGradient></defs><g class="c"><path class="a" d="M28.924,13.549q.77-.037,1.532,0C29.75,5.954,23.079,0,14.948,0,6.347,0,.169,7.455.169,15.672S-1.687,33.129,6.914,33.129A21.4,21.4,0,0,0,15.237,31a23.451,23.451,0,0,1-3.43-9.885c-.409-8.591,8.909-7.177,17.117-7.568" transform="translate(0)"/><path class="d" d="M106.849,82.308c-.384-8.054-7.211-13.67-14.826-14.018.041.439.065.882.065,1.331,0,5.9-7.737,12.737-15.284,16.123,3.917,6.781,10.477,13.087,15.925,12.827,8.208-.391,14.53-7.673,14.12-16.263" transform="translate(-61.568 -54.743)"/><g class="e"><path class="f" d="M28.924,13.549q.77-.037,1.532,0C29.75,5.954,23.079,0,14.948,0,6.347,0,.169,7.455.169,15.672S-1.687,33.129,6.914,33.129A21.4,21.4,0,0,0,15.237,31a23.451,23.451,0,0,1-3.43-9.885c-.409-8.591,8.909-7.177,17.117-7.568" transform="translate(0)"/><path class="g" d="M106.849,82.308c-.384-8.054-7.211-13.67-14.826-14.018.041.439.065.882.065,1.331,0,5.9-7.737,12.737-15.284,16.123,3.917,6.781,10.477,13.087,15.925,12.827,8.208-.391,14.53-7.673,14.12-16.263" transform="translate(-61.568 -54.743)"/></g></g></svg>