<svg xmlns="http://www.w3.org/2000/svg" width="24" height="24" viewBox="0 0 24 24"><g transform="translate(0.363)"><rect width="24" height="24" transform="translate(-0.363)" fill="none"/><g transform="translate(0.484 2)"><path d="M12,4a8,8,0,0,1,0,16,7.925,7.925,0,0,1-3.43-.78,1.963,1.963,0,0,0-.86-.19,2.1,2.1,0,0,0-.56.08l-3.2.94.94-3.2a1.991,1.991,0,0,0-.11-1.42A7.925,7.925,0,0,1,4,12a8.011,8.011,0,0,1,8-8m0-2A10,10,0,0,0,2,12a10.105,10.105,0,0,0,.97,4.29L1,23l6.71-1.97A10.105,10.105,0,0,0,12,22,10,10,0,0,0,12,2Z" transform="translate(-1 -2)" fill="#cdc7c7"/></g><path d="M13,8H11v3H8v2h3v3h2V13h3V11H13Z" transform="translate(-0.516)" fill="#cdc7c7" fill-rule="evenodd"/></g></svg>